<mxfile host="app.diagrams.net" modified="2023-08-05T04:39:13.564Z" agent="Mozilla/5.0 (Windows NT 10.0; Win64; x64) AppleWebKit/537.36 (KHTML, like Gecko) Chrome/115.0.0.0 Safari/537.36" etag="YBekicGyWzd1xNVQUPUz" version="21.6.6" type="github">
  <diagram id="C5RBs43oDa-KdzZeNtuy" name="Page-1">
    <mxGraphModel dx="989" dy="552" grid="1" gridSize="10" guides="1" tooltips="1" connect="1" arrows="1" fold="1" page="1" pageScale="1" pageWidth="827" pageHeight="1169" math="0" shadow="0">
      <root>
        <mxCell id="WIyWlLk6GJQsqaUBKTNV-0" />
        <mxCell id="WIyWlLk6GJQsqaUBKTNV-1" parent="WIyWlLk6GJQsqaUBKTNV-0" />
        <mxCell id="zPUx9gKV4A9xD_5aFpRD-10" value="" style="edgeStyle=orthogonalEdgeStyle;rounded=0;orthogonalLoop=1;jettySize=auto;html=1;" edge="1" parent="WIyWlLk6GJQsqaUBKTNV-1" source="zPUx9gKV4A9xD_5aFpRD-5" target="zPUx9gKV4A9xD_5aFpRD-9">
          <mxGeometry relative="1" as="geometry" />
        </mxCell>
        <mxCell id="zPUx9gKV4A9xD_5aFpRD-5" value="&lt;font face=&quot;Comic Sans MS&quot;&gt;Congratulations, you&#39;ve got a job at Python Pizza. Your first job is to build an automatic pizza order program.&lt;/font&gt;" style="rounded=1;whiteSpace=wrap;html=1;strokeWidth=1;perimeterSpacing=2;sketch=1;curveFitting=1;jiggle=2;" vertex="1" parent="WIyWlLk6GJQsqaUBKTNV-1">
          <mxGeometry x="294" y="10" width="240" height="60" as="geometry" />
        </mxCell>
        <mxCell id="zPUx9gKV4A9xD_5aFpRD-12" value="" style="edgeStyle=orthogonalEdgeStyle;rounded=0;orthogonalLoop=1;jettySize=auto;html=1;" edge="1" parent="WIyWlLk6GJQsqaUBKTNV-1" source="zPUx9gKV4A9xD_5aFpRD-15" target="zPUx9gKV4A9xD_5aFpRD-11">
          <mxGeometry relative="1" as="geometry" />
        </mxCell>
        <mxCell id="zPUx9gKV4A9xD_5aFpRD-23" value="" style="edgeStyle=orthogonalEdgeStyle;rounded=0;orthogonalLoop=1;jettySize=auto;html=1;" edge="1" parent="WIyWlLk6GJQsqaUBKTNV-1" source="zPUx9gKV4A9xD_5aFpRD-9" target="zPUx9gKV4A9xD_5aFpRD-22">
          <mxGeometry relative="1" as="geometry">
            <Array as="points">
              <mxPoint x="256" y="290" />
            </Array>
          </mxGeometry>
        </mxCell>
        <mxCell id="zPUx9gKV4A9xD_5aFpRD-9" value="&lt;font style=&quot;font-size: 8px;&quot;&gt;Based on a user&#39;s order, work out their final bill.&lt;/font&gt;" style="rhombus;whiteSpace=wrap;html=1;rounded=1;strokeWidth=1;shadow=0;sketch=1;curveFitting=1;jiggle=2;" vertex="1" parent="WIyWlLk6GJQsqaUBKTNV-1">
          <mxGeometry x="154" y="120" width="204" height="100" as="geometry" />
        </mxCell>
        <mxCell id="zPUx9gKV4A9xD_5aFpRD-14" value="" style="edgeStyle=orthogonalEdgeStyle;rounded=0;orthogonalLoop=1;jettySize=auto;html=1;" edge="1" parent="WIyWlLk6GJQsqaUBKTNV-1" source="zPUx9gKV4A9xD_5aFpRD-11" target="zPUx9gKV4A9xD_5aFpRD-13">
          <mxGeometry relative="1" as="geometry" />
        </mxCell>
        <mxCell id="zPUx9gKV4A9xD_5aFpRD-16" value="" style="edgeStyle=orthogonalEdgeStyle;rounded=0;orthogonalLoop=1;jettySize=auto;html=1;" edge="1" parent="WIyWlLk6GJQsqaUBKTNV-1" source="zPUx9gKV4A9xD_5aFpRD-11" target="zPUx9gKV4A9xD_5aFpRD-15">
          <mxGeometry relative="1" as="geometry" />
        </mxCell>
        <mxCell id="zPUx9gKV4A9xD_5aFpRD-32" style="edgeStyle=orthogonalEdgeStyle;rounded=0;orthogonalLoop=1;jettySize=auto;html=1;entryX=0;entryY=0.5;entryDx=0;entryDy=0;" edge="1" parent="WIyWlLk6GJQsqaUBKTNV-1" source="zPUx9gKV4A9xD_5aFpRD-11" target="zPUx9gKV4A9xD_5aFpRD-29">
          <mxGeometry relative="1" as="geometry" />
        </mxCell>
        <mxCell id="zPUx9gKV4A9xD_5aFpRD-11" value="Medium Pizza" style="whiteSpace=wrap;html=1;rounded=1;strokeWidth=1;shadow=0;sketch=1;curveFitting=1;jiggle=2;" vertex="1" parent="WIyWlLk6GJQsqaUBKTNV-1">
          <mxGeometry x="196" y="390" width="120" height="60" as="geometry" />
        </mxCell>
        <mxCell id="zPUx9gKV4A9xD_5aFpRD-33" style="edgeStyle=orthogonalEdgeStyle;rounded=0;orthogonalLoop=1;jettySize=auto;html=1;entryX=0.577;entryY=1.056;entryDx=0;entryDy=0;entryPerimeter=0;" edge="1" parent="WIyWlLk6GJQsqaUBKTNV-1" source="zPUx9gKV4A9xD_5aFpRD-13" target="zPUx9gKV4A9xD_5aFpRD-29">
          <mxGeometry relative="1" as="geometry" />
        </mxCell>
        <mxCell id="zPUx9gKV4A9xD_5aFpRD-13" value="Large Pizza" style="whiteSpace=wrap;html=1;rounded=1;strokeWidth=1;shadow=0;sketch=1;curveFitting=1;jiggle=2;" vertex="1" parent="WIyWlLk6GJQsqaUBKTNV-1">
          <mxGeometry x="196" y="520" width="120" height="60" as="geometry" />
        </mxCell>
        <mxCell id="zPUx9gKV4A9xD_5aFpRD-17" value="15$" style="text;strokeColor=none;align=center;fillColor=none;html=1;verticalAlign=middle;whiteSpace=wrap;rounded=0;" vertex="1" parent="WIyWlLk6GJQsqaUBKTNV-1">
          <mxGeometry x="124" y="280" width="60" height="30" as="geometry" />
        </mxCell>
        <mxCell id="zPUx9gKV4A9xD_5aFpRD-18" value="20$" style="text;strokeColor=none;align=center;fillColor=none;html=1;verticalAlign=middle;whiteSpace=wrap;rounded=0;" vertex="1" parent="WIyWlLk6GJQsqaUBKTNV-1">
          <mxGeometry x="184" y="280" width="60" height="30" as="geometry" />
        </mxCell>
        <mxCell id="zPUx9gKV4A9xD_5aFpRD-19" value="25$" style="text;strokeColor=none;align=center;fillColor=none;html=1;verticalAlign=middle;whiteSpace=wrap;rounded=0;" vertex="1" parent="WIyWlLk6GJQsqaUBKTNV-1">
          <mxGeometry x="124" y="535" width="60" height="30" as="geometry" />
        </mxCell>
        <mxCell id="zPUx9gKV4A9xD_5aFpRD-27" style="edgeStyle=orthogonalEdgeStyle;rounded=0;orthogonalLoop=1;jettySize=auto;html=1;exitX=1;exitY=0;exitDx=0;exitDy=0;entryX=0.88;entryY=-0.021;entryDx=0;entryDy=0;entryPerimeter=0;" edge="1" parent="WIyWlLk6GJQsqaUBKTNV-1" source="zPUx9gKV4A9xD_5aFpRD-22" target="zPUx9gKV4A9xD_5aFpRD-26">
          <mxGeometry relative="1" as="geometry" />
        </mxCell>
        <mxCell id="zPUx9gKV4A9xD_5aFpRD-40" style="edgeStyle=orthogonalEdgeStyle;rounded=0;orthogonalLoop=1;jettySize=auto;html=1;" edge="1" parent="WIyWlLk6GJQsqaUBKTNV-1" source="zPUx9gKV4A9xD_5aFpRD-22">
          <mxGeometry relative="1" as="geometry">
            <mxPoint x="649.9999999999998" y="339.9999999999999" as="targetPoint" />
          </mxGeometry>
        </mxCell>
        <mxCell id="zPUx9gKV4A9xD_5aFpRD-22" value="&lt;blockquote style=&quot;margin: 0px 0px 0px 40px; border: none; padding: 0px; line-height: 120%;&quot;&gt;&lt;pre style=&quot;line-height: 120%;&quot;&gt;&lt;br&gt;&lt;/pre&gt;&lt;/blockquote&gt;" style="ellipse;whiteSpace=wrap;html=1;rounded=1;strokeWidth=1;shadow=0;sketch=1;curveFitting=1;jiggle=2;align=left;" vertex="1" parent="WIyWlLk6GJQsqaUBKTNV-1">
          <mxGeometry x="390" y="240" width="150" height="90" as="geometry" />
        </mxCell>
        <mxCell id="zPUx9gKV4A9xD_5aFpRD-24" value="" style="edgeStyle=orthogonalEdgeStyle;rounded=0;orthogonalLoop=1;jettySize=auto;html=1;" edge="1" parent="WIyWlLk6GJQsqaUBKTNV-1" source="zPUx9gKV4A9xD_5aFpRD-9" target="zPUx9gKV4A9xD_5aFpRD-15">
          <mxGeometry relative="1" as="geometry">
            <mxPoint x="256" y="220" as="sourcePoint" />
            <mxPoint x="214" y="460" as="targetPoint" />
          </mxGeometry>
        </mxCell>
        <mxCell id="zPUx9gKV4A9xD_5aFpRD-15" value="Small Pizza" style="whiteSpace=wrap;html=1;rounded=1;strokeWidth=1;shadow=0;sketch=1;curveFitting=1;jiggle=2;" vertex="1" parent="WIyWlLk6GJQsqaUBKTNV-1">
          <mxGeometry x="196" y="265" width="120" height="60" as="geometry" />
        </mxCell>
        <mxCell id="zPUx9gKV4A9xD_5aFpRD-25" value="20$" style="text;strokeColor=none;align=center;fillColor=none;html=1;verticalAlign=middle;whiteSpace=wrap;rounded=0;" vertex="1" parent="WIyWlLk6GJQsqaUBKTNV-1">
          <mxGeometry x="124" y="405" width="60" height="30" as="geometry" />
        </mxCell>
        <mxCell id="zPUx9gKV4A9xD_5aFpRD-26" value="Pepperoni for Small Pizza" style="text;strokeColor=none;align=center;fillColor=none;html=1;verticalAlign=middle;whiteSpace=wrap;rounded=0;fontFamily=Comic Sans MS;" vertex="1" parent="WIyWlLk6GJQsqaUBKTNV-1">
          <mxGeometry x="400" y="270" width="130" height="30" as="geometry" />
        </mxCell>
        <mxCell id="zPUx9gKV4A9xD_5aFpRD-29" value="&lt;blockquote style=&quot;margin: 0px 0px 0px 40px; border: none; padding: 0px; line-height: 120%;&quot;&gt;&lt;pre style=&quot;line-height: 120%;&quot;&gt;&lt;br&gt;&lt;/pre&gt;&lt;/blockquote&gt;" style="ellipse;whiteSpace=wrap;html=1;rounded=1;strokeWidth=1;shadow=0;sketch=1;curveFitting=1;jiggle=2;align=left;" vertex="1" parent="WIyWlLk6GJQsqaUBKTNV-1">
          <mxGeometry x="390" y="375" width="150" height="90" as="geometry" />
        </mxCell>
        <mxCell id="zPUx9gKV4A9xD_5aFpRD-41" style="edgeStyle=orthogonalEdgeStyle;rounded=0;orthogonalLoop=1;jettySize=auto;html=1;" edge="1" parent="WIyWlLk6GJQsqaUBKTNV-1" source="zPUx9gKV4A9xD_5aFpRD-31">
          <mxGeometry relative="1" as="geometry">
            <mxPoint x="649.9999999999998" y="379.9999999999999" as="targetPoint" />
          </mxGeometry>
        </mxCell>
        <mxCell id="zPUx9gKV4A9xD_5aFpRD-31" value="Pepperoni for Medium and large Pizza" style="text;strokeColor=none;align=center;fillColor=none;html=1;verticalAlign=middle;whiteSpace=wrap;rounded=0;fontFamily=Comic Sans MS;" vertex="1" parent="WIyWlLk6GJQsqaUBKTNV-1">
          <mxGeometry x="400" y="405" width="130" height="30" as="geometry" />
        </mxCell>
        <mxCell id="zPUx9gKV4A9xD_5aFpRD-34" value="$3" style="text;strokeColor=none;align=center;fillColor=none;html=1;verticalAlign=middle;whiteSpace=wrap;rounded=0;fontSize=17;fontFamily=Comic Sans MS;" vertex="1" parent="WIyWlLk6GJQsqaUBKTNV-1">
          <mxGeometry x="330" y="470" width="60" height="30" as="geometry" />
        </mxCell>
        <mxCell id="zPUx9gKV4A9xD_5aFpRD-36" value="$2" style="text;strokeColor=none;align=center;fillColor=none;html=1;verticalAlign=middle;whiteSpace=wrap;rounded=0;fontFamily=Comic Sans MS;" vertex="1" parent="WIyWlLk6GJQsqaUBKTNV-1">
          <mxGeometry x="320" y="260" width="60" height="30" as="geometry" />
        </mxCell>
        <mxCell id="zPUx9gKV4A9xD_5aFpRD-42" value="" style="whiteSpace=wrap;html=1;" vertex="1" parent="WIyWlLk6GJQsqaUBKTNV-1">
          <mxGeometry x="590" y="330" width="120" height="60" as="geometry" />
        </mxCell>
        <mxCell id="zPUx9gKV4A9xD_5aFpRD-43" value="extra cheese" style="text;strokeColor=none;align=center;fillColor=none;html=1;verticalAlign=middle;whiteSpace=wrap;rounded=0;fontSize=14;fontFamily=Comic Sans MS;" vertex="1" parent="WIyWlLk6GJQsqaUBKTNV-1">
          <mxGeometry x="610" y="345" width="80" height="30" as="geometry" />
        </mxCell>
        <mxCell id="zPUx9gKV4A9xD_5aFpRD-44" value="$1" style="text;strokeColor=none;align=center;fillColor=none;html=1;verticalAlign=middle;whiteSpace=wrap;rounded=0;fontFamily=Comic Sans MS;" vertex="1" parent="WIyWlLk6GJQsqaUBKTNV-1">
          <mxGeometry x="700" y="345" width="60" height="30" as="geometry" />
        </mxCell>
      </root>
    </mxGraphModel>
  </diagram>
</mxfile>
